<svg version="1.2" xmlns="http://www.w3.org/2000/svg" viewBox="0 0 895 449" width="895" height="449">
	<title>contact-svg</title>
	<style>
		.s0 { fill: #f2980f } 
		.s1 { fill: #2f2e41 } 
		.s2 { fill: #ffb6b6 } 
		.s3 { fill: #000000 } 
		.s4 { fill: #f9a826 } 
		.s5 { fill: #3f3d56 } 
		.s6 { fill: #ffffff } 
	</style>
	<g id="Layer 1">
		<path id="Layer" class="s0" d="m294.5 448.3q-40.5 0-80.8-1.5c-38.5-1.3-78.2-2.8-115.2-23.3-25.8-14.3-48.7-37.3-66.2-66.5q-4.3-7.4-8.1-15.1-3.8-7.7-7-15.7-3.2-8-5.7-16.2-2.6-8.2-4.5-16.6-3.6-15.2-5.4-30.7-1.7-15.6-1.6-31.2 0.1-15.7 2.1-31.2 2-15.5 5.8-30.7 1.4-5.2 3-10.3 1.6-5.2 3.4-10.2 1.8-5.1 3.9-10 2.1-5 4.5-9.9c26.9-55.7 76-93.2 134.8-102.7q0.2 0 0.4 0 0.1-0.1 0.3-0.1 0.2 0 0.4 0 0.2 0 0.3 0.1 0.4 0 0.8 0l0.4-0.1q0.3-0.1 0.7-0.2 0.3-0.1 0.6-0.2 0.4-0.1 0.7-0.2 0.4-0.1 0.7-0.1c90.6-13.5 186.4 13.8 277 78.9 70 50.3 162.8 77.4 283.7 82.9l1.8 0.1c33.6 1.9 66.2 15.8 94.1 40.1 27.6 24 48.3 56 59.9 92.6 1.4 4.5 2.7 9.1 3.9 13.8q0.8 3.3 0.7 6.7 0 3.3-0.9 6.6-0.9 3.2-2.7 6.1-1.7 2.9-4.1 5.3l-0.3 0.3q-1 1.1-2.2 2.1l-0.9 0.7c-7.8 6.4-13.9 11.4-21.2 15.3q-1.8 1-3.7 1.9-1.9 0.8-3.8 1.5-1.9 0.8-3.9 1.4-2 0.6-4 1.1c-29.5 7.1-59.4 13.8-88.9 19.8-57.4 11.5-116.3 21.1-175.1 28.3q-34.5 4.3-69.2 7.5-34.6 3.2-69.4 5.3-34.7 2.1-69.5 3.2-34.8 1.1-69.6 1.1zm-136.2-419.9q-0.1 0-0.2 0 0 0-0.1 0-0.1 0-0.1 0.1-0.1 0-0.2 0c-58.2 9.4-106.8 46.5-133.5 101.7q-2.3 4.8-4.4 9.7-2.1 5-3.9 10-1.8 5-3.4 10.1-1.6 5.1-2.9 10.2-3.8 15.1-5.8 30.4-1.9 15.4-2.1 30.9-0.1 15.5 1.7 30.9 1.7 15.4 5.2 30.5 1.9 8.3 4.5 16.4 2.5 8.2 5.7 16.1 3.1 7.9 6.9 15.5 3.7 7.7 8.1 15c17.3 28.9 39.9 51.6 65.5 65.8 36.6 20.3 76.2 21.8 114.4 23.1q44.9 1.6 89.8 1.5 44.8-0.2 89.7-2.2 44.8-1.9 89.6-5.6 44.7-3.8 89.2-9.3c58.8-7.2 117.6-16.7 175-28.3 29.5-6 59.4-12.6 88.9-19.8q1.9-0.5 3.8-1.1 2-0.5 3.9-1.3 1.8-0.7 3.7-1.5 1.8-0.8 3.6-1.8c7.2-3.8 13.2-8.8 20.9-15.1l0.9-0.7q1-0.9 1.9-1.8l0.2-0.2c6.3-6.3 8.7-14.7 6.7-22.9-1.1-4.7-2.4-9.3-3.8-13.7-23.7-74.7-85-127.6-152.5-131.4l-1.7-0.1c-55.3-2.5-103.6-9.4-147.8-21-52.7-13.9-98.8-34.8-136.9-62.2-90.2-64.9-185.6-92.1-275.8-78.6q-0.3 0-0.6 0.1-0.3 0-0.6 0.1-0.3 0.1-0.6 0.2-0.3 0.1-0.6 0.2l-0.7 0.2q-0.1 0-0.2 0-0.2 0-0.3 0-0.1 0-0.3 0-0.1 0-0.2 0-0.3-0.1-0.6-0.1z"/>
		<path id="Layer" class="s1" d="m279.3 146.1c-2.5-2.4-5-15.8-8.2-17.2 2.4 5.3 0.6 6.7 0.6 12.5q0 1.2 0 2.4-0.1 1.3-0.2 2.5-0.2 1.2-0.4 2.4-0.2 1.2-0.5 2.4h-54v-42.1c0-3.8 0.7-7.6 2.2-11.1 1.4-3.5 3.5-6.7 6.2-9.3 2.7-2.7 5.9-4.8 9.4-6.3 3.5-1.4 7.2-2.2 11-2.2q0.5 0 1.1 0.1 0.5 0 1.1 0.1 0.5 0.1 1 0.2 0.6 0.1 1.1 0.2 3.5 1 6.6 2.8 3.1 1.8 5.7 4.4 2.5 2.5 4.3 5.6 1.8 3.2 2.7 6.6c4.2 15.1 10.7 40.2 10.3 46z"/>
		<path id="Layer" class="s2" d="m219.7 197.9l0.1-32.8-19.4 1.7 6.9 20.7-3.2 52.1c-3.2 0.7-5.6 3.2-6.3 6.4-0.6 3.2 0.7 6.4 3.4 8.3 2.6 1.8 6.1 1.9 8.9 0.3 2.8-1.7 4.3-4.9 3.9-8.1z"/>
		<path id="Layer" class="s2" d="m257.7 432.8h7.9l3.7-30.1h-11.6v30.1z"/>
		<path id="Layer" class="s1" d="m255.1 428.9l12.3-0.7v5.3l11.8 8.1c0.5 0.4 1 0.9 1.2 1.6 0.2 0.7 0.3 1.4 0 2.1-0.2 0.6-0.6 1.2-1.2 1.6-0.5 0.5-1.2 0.7-1.9 0.7h-14.7l-2.5-5.2-1 5.2h-5.6z"/>
		<path id="Layer" class="s2" d="m212.6 432.8h7.8l3.7-30.1h-11.5v30.1z"/>
		<path id="Layer" class="s1" d="m210 428.9l12.3-0.7v5.3l11.7 8.1c0.6 0.4 1.1 0.9 1.3 1.6 0.2 0.7 0.2 1.4 0 2.1-0.2 0.6-0.6 1.2-1.2 1.6-0.5 0.5-1.2 0.7-1.9 0.7h-14.7l-2.6-5.2-0.9 5.2h-5.6z"/>
		<path id="Layer" class="s3" d="m250.8 129.6l-16.2 0.3-11.4 12-9.1 1.4c-2.1 0.3-4.1 0.9-5.9 1.9-1.8 1-3.5 2.2-4.9 3.8-1.4 1.5-2.6 3.3-3.4 5.2-0.8 1.9-1.3 3.9-1.4 6l1.6 8.7h9.5l5.5 32.3c-2.2 5.4-2.3 9.7 2.1 11.4l13.6 25.7 40.3-18.1c2-3.5 2.7-7 0.6-10.4l2.9-49.5h9.6c0-9.2-3.1-17-12.3-18.1q-1.3-0.1-2.7-0.2-1.4-0.1-2.8-0.2-1.3-0.1-2.7-0.1-1.4-0.1-2.8-0.1z"/>
		<path id="Layer" class="s1" d="m271.1 220.2c0 0-39.3 7-53.9-7.6 0 0-1.5 2.5-3.7 6.7-0.7 1.2-1.9 2-2.6 3.5-0.7 1.3-2.5 2.9-3.2 4.4-0.6 1.2 0.3 2.8-0.3 4.1-7.4 15.7-16.2 37.7-14.3 52.3 1.2 9.4 3.7 31.3 6.3 54.9 0.2 1.8-1.4 4.1-1.2 6 0.2 1.7 2.2 3 2.4 4.7 0.2 1.2-1.3 2.4-1.2 3.5 0.2 1.3 1.9 2.6 2 3.8 3.6 32.5 6.9 62.8 6.9 62.8h18.4l3.5-69.2-2.9-25.3 6.7-51 9.2 48.5 1.2 27.3 9.7 71h17v-68.7l1.3-3.6-1.3-4.6 1.3-4.9-1.3-5.4z"/>
		<path id="Layer" class="s2" d="m255.8 120.2c-5.2 6.8-14.4 9.2-22.2 5.7-7.9-3.6-12.2-12-10.4-20.4 1.7-8.4 9-14.5 17.6-14.6 8.6-0.2 16.1 5.6 18.1 14q0.1 0.3 0.2 0.6 0.4 1.9 0.3 3.9 0 1.9-0.4 3.8-0.4 1.9-1.3 3.7-0.8 1.7-1.9 3.3z"/>
		<path id="Layer" class="s1" d="m251.9 109.7q-0.1-0.7-0.4-1.4-0.2-0.7-0.6-1.3-0.3-0.7-0.8-1.3-0.4-0.6-1-1.1 0.1 0.7 0.1 1.4-0.1 0.7-0.2 1.4-0.1 0.7-0.2 1.4-0.2 0.7-0.4 1.3-1.8 0.2-3.6 0.1-1.8-0.1-3.6-0.4-1.8-0.4-3.5-1-1.7-0.6-3.3-1.4c-3.2-2.2-7.3-2-12.1 0 0-2.4 0.4-4.7 1.3-6.8 0.9-2.2 2.2-4.1 3.9-5.8 1.6-1.6 3.6-2.9 5.7-3.8 2.2-0.9 4.5-1.4 6.8-1.4h3.2c2.3 0 4.6 0.5 6.8 1.4 2.1 0.9 4.1 2.2 5.7 3.8 1.7 1.7 3 3.6 3.9 5.8 0.9 2.1 1.3 4.4 1.3 6.8q-1.1 0.4-2.2 0.7-1.1 0.4-2.2 0.7-1.1 0.3-2.3 0.5-1.1 0.2-2.3 0.4z"/>
		<path id="Layer" class="s3" d="m113.2 336c-28.2 0-51-22.8-51-51 0-28.2 22.8-51 51-51 28.3 0 51 22.8 51 51 0 28.2-22.7 51-51 51z"/>
		<path id="Layer" class="s3" d="m438.2 102c-28.2 0-51-22.8-51-51 0-28.2 22.8-51 51-51 28.3 0 51 22.8 51 51 0 28.2-22.7 51-51 51z"/>
		<path id="Layer" class="s3" d="m843.2 344c-28.2 0-51-22.8-51-51 0-28.2 22.8-51 51-51 28.3 0 51 22.8 51 51 0 28.2-22.7 51-51 51z"/>
		<path id="Layer" class="s4" d="m530.2 56.6v115.6c0 1.2-0.2 2.4-0.6 3.5-0.5 1.1-1.2 2.1-2 2.9-0.8 0.9-1.8 1.5-2.9 2-1.1 0.5-2.3 0.7-3.5 0.7q0 0 0 0 0 0 0 0 0 0 0 0-0.1 0-0.1 0h-13.4c-5.4 0-10.6-1-15.6-3.1-4.9-2-9.4-5-13.1-8.8-3.8-3.7-6.8-8.2-8.8-13.1-2.1-5-3.1-10.2-3.1-15.6v-84.1c0-1.2 0.2-2.4 0.7-3.5 0.4-1.1 1.1-2.1 1.9-3 0.9-0.8 1.9-1.5 3-2 1.1-0.4 2.3-0.7 3.5-0.7h5.4c-2.5 7.4 31.8 10.5 33.7 0h5.8c1.2 0 2.4 0.3 3.5 0.7 1.1 0.5 2.1 1.2 3 2 0.8 0.9 1.5 1.9 2 3 0.4 1.1 0.6 2.3 0.6 3.5z"/>
		<path id="Layer" class="s5" d="m490.3 38.8q0-0.2 0.1-0.5 0.1-0.2 0.3-0.4 0.1-0.1 0.3-0.2 0.3-0.1 0.5-0.1h8.1c0.3 0 0.7 0.1 0.9 0.3 0.2 0.3 0.3 0.6 0.3 0.9 0 0.3-0.1 0.6-0.3 0.8-0.2 0.3-0.6 0.4-0.9 0.4h-8.1q-0.2 0-0.5-0.1-0.2-0.1-0.3-0.3-0.2-0.1-0.3-0.4-0.1-0.2-0.1-0.4z"/>
		<path id="Layer" class="s5" d="m523.9 196h-51.4c-2 0-3.9-0.4-5.8-1.1-1.8-0.8-3.4-1.9-4.8-3.3-1.4-1.4-2.5-3.1-3.3-4.9-0.8-1.8-1.1-3.8-1.1-5.7v-80.9q-0.3-0.1-0.4-0.3-0.2-0.2-0.3-0.5-0.1-0.2-0.2-0.5-0.1-0.2-0.1-0.5v-8.1q0-0.3 0.1-0.5 0.1-0.3 0.2-0.5 0.1-0.2 0.3-0.4 0.1-0.2 0.4-0.4v-2.2q-0.3-0.1-0.4-0.3-0.2-0.2-0.3-0.4-0.1-0.3-0.2-0.5-0.1-0.3-0.1-0.5v-8.2q0-0.2 0.1-0.5 0.1-0.2 0.2-0.5 0.1-0.2 0.3-0.4 0.1-0.2 0.4-0.3v-4q-0.3-0.1-0.5-0.3-0.2-0.2-0.4-0.5-0.1-0.2-0.2-0.5-0.1-0.3-0.1-0.6v-8.1q0-0.3 0.1-0.6 0.1-0.3 0.2-0.6 0.2-0.2 0.4-0.4 0.2-0.2 0.5-0.4v-10.8c0-2 0.3-3.9 1.1-5.7 0.8-1.9 1.9-3.5 3.3-4.9 1.4-1.4 3-2.5 4.8-3.3 1.9-0.7 3.8-1.1 5.8-1.1h51.4c2 0 3.9 0.4 5.8 1.1 1.8 0.8 3.5 1.9 4.9 3.3 1.3 1.4 2.5 3 3.2 4.9 0.8 1.8 1.2 3.7 1.2 5.7v23.6q0.2 0.1 0.3 0.3 0.2 0.1 0.3 0.4 0.1 0.2 0.2 0.4 0.1 0.2 0.1 0.5v15.5q0 0.2-0.1 0.4-0.1 0.3-0.2 0.5-0.1 0.2-0.3 0.4-0.1 0.1-0.3 0.3v90.9c0 1.9-0.4 3.9-1.2 5.7-0.7 1.8-1.9 3.5-3.2 4.9-1.4 1.4-3.1 2.5-4.9 3.3-1.9 0.7-3.8 1.1-5.8 1.1zm-51.4-161.2c-1.7 0-3.4 0.3-5 1-1.6 0.6-3 1.6-4.2 2.8-1.2 1.2-2.2 2.6-2.8 4.2-0.7 1.6-1 3.3-1 5v12.5l-1 0.1q0 0-0.1 0 0 0 0 0-0.1 0-0.1 0.1 0 0 0 0.1v8.1q0 0 0 0.1 0 0 0.1 0 0 0 0 0.1 0.1 0 0.1 0h1v7.1l-0.8 0.1q0 0.1-0.1 0.1 0 0 0 0 0 0 0 0.1-0.1 0-0.1 0v8.2q0 0 0.1 0 0 0.1 0 0.1 0 0 0 0 0.1 0 0.1 0.1l0.8 0.1v5l-0.8 0.2q0 0-0.1 0 0 0.1 0 0.1 0 0 0 0-0.1 0.1-0.1 0.1v8.1q0 0.1 0.1 0.1 0 0 0 0.1 0 0 0 0 0.1 0 0.1 0l0.8 0.2v82.3c0 1.7 0.3 3.4 1 4.9 0.6 1.6 1.6 3.1 2.8 4.3 1.2 1.2 2.6 2.1 4.2 2.8 1.6 0.7 3.3 1 5 1h51.4c1.7 0 3.4-0.3 5-1 1.6-0.7 3-1.6 4.2-2.8 1.3-1.2 2.2-2.7 2.9-4.3 0.6-1.5 1-3.2 1-4.9v-92.6h0.9v-15.3h-0.9v-25.3c0-1.7-0.4-3.4-1-5-0.7-1.6-1.6-3-2.9-4.2-1.2-1.2-2.6-2.2-4.2-2.8-1.6-0.7-3.3-1-5-1z"/>
		<path id="Layer" class="s5" d="m504.2 40c-0.7 0-1.2-0.5-1.2-1.2 0-0.7 0.5-1.2 1.2-1.2 0.6 0 1.2 0.5 1.2 1.2 0 0.7-0.6 1.2-1.2 1.2z"/>
		<path id="Layer" class="s6" d="m244.1 270.4h-133.8q-1.4 0-2.7-0.5-1.4-0.6-2.4-1.6-1-1-1.5-2.3-0.6-1.3-0.6-2.8v-65.2q0-1.4 0.6-2.7 0.5-1.3 1.5-2.3 1-1 2.4-1.6 1.3-0.5 2.7-0.5h133.8q1.4 0 2.7 0.5 1.3 0.6 2.3 1.6 1 1 1.6 2.3 0.5 1.3 0.5 2.7v65.2q0 1.5-0.5 2.8-0.6 1.3-1.6 2.3-1 1-2.3 1.6-1.3 0.5-2.7 0.5z"/>
		<path id="Layer" class="s5" d="m244.1 270.4h-133.8q-1.4 0-2.7-0.5-1.4-0.6-2.4-1.6-1-1-1.5-2.3-0.6-1.3-0.6-2.8v-65.2q0-1.4 0.6-2.7 0.5-1.3 1.5-2.3 1-1 2.4-1.6 1.3-0.5 2.7-0.5h133.8q1.4 0 2.7 0.5 1.3 0.6 2.3 1.6 1 1 1.6 2.3 0.5 1.3 0.5 2.7v65.2q0 1.5-0.5 2.8-0.6 1.3-1.6 2.3-1 1-2.3 1.6-1.3 0.5-2.7 0.5zm-133.8-77.5q-1 0-2 0.4-0.9 0.4-1.7 1.1-0.7 0.7-1.1 1.7-0.4 0.9-0.4 1.9v65.2q0 1.1 0.4 2 0.4 1 1.1 1.7 0.8 0.7 1.7 1.1 1 0.4 2 0.4h133.8q1 0 2-0.4 0.9-0.4 1.6-1.1 0.8-0.7 1.2-1.7 0.3-0.9 0.3-2v-65.2q0-1-0.3-1.9-0.4-1-1.2-1.7-0.7-0.7-1.6-1.1-1-0.4-2-0.4z"/>
		<path id="Layer" class="s4" d="m184.4 260.8c-26.4 0-53.9-0.3-64.2-0.4q-1-0.1-2-0.5-0.9-0.4-1.6-1.1-0.7-0.7-1.1-1.7-0.4-0.9-0.4-1.9v-54q0-0.3 0.2-0.7 0.1-0.3 0.4-0.6 0.2-0.2 0.5-0.4 0.4-0.1 0.7-0.1h120.5q0.4 0 0.7 0.1 0.4 0.2 0.6 0.4 0.3 0.3 0.4 0.6 0.1 0.4 0.1 0.7v36.6c0 3-0.5 5.9-1.7 8.7-1.1 2.7-2.8 5.2-4.8 7.3-2.1 2.1-4.6 3.8-7.3 5-2.7 1.1-5.6 1.7-8.6 1.8-9.6 0.1-20.9 0.2-32.4 0.2z"/>
		<path id="Layer" class="s5" d="m230.3 234.5h-108.9q-0.7 0-1.3-0.2-0.7-0.2-1.2-0.6-0.6-0.4-1-1-0.4-0.5-0.7-1.2l-12.3-34.5q-0.3-1-0.2-2.1 0.2-1.1 0.8-2 0.6-0.8 1.6-1.3 0.9-0.5 2-0.5l136.1-0.2q0.9 0 1.8 0.4 0.9 0.4 1.5 1.2 0.7 0.7 0.9 1.7 0.3 0.9 0.1 1.9h0.1l-0.4 0.9-14.9 34.8q-0.2 0.6-0.6 1.1-0.5 0.5-1 0.9-0.5 0.3-1.2 0.5-0.6 0.2-1.2 0.2zm14.9-41.6l-136.1 0.2q-0.6 0-1.1 0.2-0.5 0.3-0.9 0.8-0.3 0.5-0.4 1.1-0.1 0.6 0.1 1.1l12.3 34.6q0.2 0.3 0.4 0.6 0.2 0.3 0.5 0.5 0.3 0.3 0.7 0.4 0.3 0.1 0.7 0.1h108.9q0.3 0 0.7-0.1 0.3-0.1 0.6-0.3 0.3-0.2 0.5-0.5 0.3-0.3 0.4-0.6l14.9-34.7 0.7 0.3-0.7-0.3q0.2-0.6 0.2-1.2-0.1-0.6-0.4-1.1-0.4-0.5-0.9-0.8-0.5-0.3-1.1-0.3z"/>
		<path id="Layer" class="s6" d="m177 242c-4.7 0-8.5-3.8-8.5-8.5 0-4.7 3.8-8.5 8.5-8.5 4.7 0 8.5 3.8 8.5 8.5 0 4.7-3.8 8.5-8.5 8.5z"/>
		<path id="Layer" class="s6" d="m499 168c-4.7 0-8.5-3.8-8.5-8.5 0-4.7 3.8-8.5 8.5-8.5 4.7 0 8.5 3.8 8.5 8.5 0 4.7-3.8 8.5-8.5 8.5z"/>
		<path id="Layer" class="s5" d="m821.4 283.1l-22.8-22.5q-0.8-0.8-1.8-1.4-1-0.7-2.1-1.1-1-0.5-2.2-0.7-1.1-0.2-2.3-0.2h-0.1q-1.2 0-2.3 0.2-1.2 0.3-2.3 0.7-1.1 0.5-2.1 1.1-0.9 0.7-1.8 1.5c-2.5 2.6-4.5 5.6-5.9 8.9-1.4 3.3-2.1 6.9-2.1 10.5-0.1 3.5 0.6 7.1 1.9 10.5 1.3 3.3 3.2 6.4 5.6 9q0.4 0.4 0.8 0.7 0.5 0.6 1.1 1 0.5 0.5 1.1 1 0.5 0.4 1.1 0.9 0.6 0.4 1.2 0.8 1.7 1.1 3.5 1.9 1.9 0.8 3.8 1.4 1.9 0.6 3.9 0.8 2 0.3 4 0.3h0.1q2.8 0 5.5-0.5 2.7-0.6 5.2-1.7 2.6-1 4.9-2.6 2.2-1.5 4.2-3.5c1.1-1.1 2-2.5 2.6-3.9 0.5-1.5 0.8-3 0.8-4.6 0-1.6-0.3-3.1-0.9-4.6-0.6-1.5-1.5-2.8-2.6-3.9zm-1.3 15.6c-2.1 2.1-4.6 3.8-7.3 5.1-2.7 1.3-5.5 2.1-8.5 2.5-3 0.3-6 0.1-8.9-0.6-2.8-0.7-5.6-1.9-8.1-3.5q-0.5-0.4-1.1-0.8-0.5-0.4-1-0.8-0.5-0.4-1-0.8-0.5-0.4-0.9-0.9c-2.4-2.4-4.4-5.2-5.7-8.4-1.3-3.1-2-6.5-2-9.9-0.1-3.4 0.6-6.8 1.9-10 1.3-3.1 3.2-6 5.6-8.4q0.6-0.8 1.5-1.3 0.8-0.6 1.7-0.9 0.9-0.4 1.9-0.6 0.9-0.2 1.9-0.2h0.1q1 0 1.9 0.2 1 0.2 1.9 0.5 0.9 0.4 1.7 0.9 0.8 0.6 1.5 1.3l22.8 22.4c0.9 1 1.6 2.1 2.2 3.3 0.5 1.2 0.7 2.5 0.7 3.8 0 1.3-0.2 2.6-0.7 3.8-0.5 1.2-1.2 2.4-2.1 3.3z"/>
		<path id="Layer" class="s5" d="m746.7 209.3l-22.8-22.5q-0.8-0.8-1.8-1.4-1-0.7-2.1-1.1-1.1-0.5-2.2-0.7-1.2-0.2-2.3-0.2h-0.1q-1.2 0-2.3 0.2-1.2 0.3-2.3 0.7-1.1 0.5-2.1 1.2-0.9 0.6-1.8 1.5c-2.1 2.1-3.8 4.5-5.1 7.2-1.3 2.7-2.2 5.5-2.7 8.5-0.4 2.9-0.3 5.9 0.2 8.9 0.5 2.9 1.5 5.7 2.9 8.4q0.5 0.8 1 1.6 0.4 0.7 1 1.5 0.5 0.7 1.1 1.4 0.6 0.7 1.2 1.4 0.3 0.3 0.7 0.7 1.9 1.9 4.2 3.4 2.3 1.5 4.8 2.6 2.5 1 5.2 1.5 2.7 0.5 5.4 0.5h0.2q2.8 0 5.5-0.5 2.7-0.6 5.2-1.6 2.6-1.1 4.9-2.7 2.2-1.5 4.2-3.5c1.1-1.1 2-2.4 2.6-3.9 0.5-1.5 0.8-3 0.8-4.6 0-1.6-0.3-3.1-0.9-4.6-0.6-1.4-1.5-2.8-2.6-3.9zm-1.4 15.6q-1.7 1.8-3.9 3.3-2.1 1.4-4.4 2.4-2.4 1-4.9 1.5-2.5 0.5-5.1 0.5h-0.2c-5.1 0-10.1-1.5-14.4-4.3-4.2-2.9-7.6-6.9-9.5-11.6-2-4.8-2.5-10-1.6-15 1-5 3.5-9.7 7.1-13.3 0.9-1 2-1.7 3.2-2.2 1.2-0.5 2.5-0.8 3.8-0.8 1.3 0 2.6 0.2 3.8 0.7 1.3 0.5 2.4 1.3 3.3 2.2l22.8 22.5c0.9 0.9 1.6 2 2.2 3.2 0.5 1.2 0.7 2.5 0.7 3.8 0 1.3-0.2 2.6-0.7 3.9-0.5 1.2-1.2 2.3-2.2 3.2z"/>
		<path id="Layer" class="s4" d="m822.8 290.2l-25.1-24.8c-0.8-0.8-1.7-1.4-2.8-1.9-1.1-0.4-2.2-0.6-3.3-0.6-1.2 0-2.3 0.2-3.4 0.7-1 0.4-2 1.1-2.8 1.9-4.1 4.1-6.4 9.7-6.4 15.6 0.1 5.8 2.4 11.4 6.6 15.5 4.1 4.1 9.7 6.4 15.6 6.3 5.8 0 11.4-2.4 15.5-6.5z"/>
		<path id="Layer" class="s4" d="m748.1 216.4l-25.1-24.8c-0.8-0.8-1.8-1.4-2.8-1.9-1.1-0.4-2.2-0.6-3.4-0.6-1.1 0-2.2 0.2-3.3 0.7-1 0.4-2 1.1-2.8 1.9-4.1 4.1-6.4 9.7-6.4 15.6 0.1 5.8 2.4 11.4 6.6 15.5 4.1 4.1 9.7 6.4 15.6 6.4 5.8-0.1 11.4-2.4 15.5-6.6z"/>
		<path id="Layer" class="s5" d="m795.2 305.6l-0.6 1.6q-4.2-1.6-8.2-3.2c-46.8-19.1-69.2-41.5-84.2-84q-1.1-3-2.1-6.2l1.6-0.5q0.2 0.8 0.5 1.5 0.2 0.7 0.5 1.5 0.3 0.7 0.6 1.4 0.3 0.7 0.7 1.4 1.2 3.5 2.5 6.8c14.1 35.9 34.9 56.4 74.6 73.7q3 1.3 6.2 2.6 0.9 0.6 1.9 1.1 0.9 0.5 1.9 0.9 1 0.5 2.1 0.8 1 0.4 2 0.6z"/>
		<path id="Layer" class="s5" d="m722.1 234.2l1.4-1.4 51.9 51.3-1.4 1.4z"/>
		<path id="Layer" class="s2" d="m283.8 190.3v-32.8l-19.3 1.7 6.8 20.7-24.8 37.5c-3.1 0.7-5.6 3.2-6.2 6.4-0.6 3.2 0.7 6.4 3.4 8.3 2.6 1.9 6.1 2 8.9 0.3 2.8-1.7 4.3-4.9 3.8-8.1z"/>
	</g>
</svg>