<svg version="1.2" xmlns="http://www.w3.org/2000/svg" viewBox="0 0 525 532" width="525" height="532">
	<title>undraw_team_up_re_84ok-svg</title>
	<style>
		.s0 { fill: #a0616a } 
		.s1 { fill: #3f3d56 } 
		.s2 { fill: #ffffff } 
		.s3 { fill: #0d0843 } 
		.s4 { fill: #f9a826 } 
		.s5 { fill: #f3b609 } 
		.s6 { fill: #2f2e41 } 
		.s7 { fill: #e6e6e6 } 
		.s8 { fill: #f6b706 } 
		.s9 { fill: #ffb6b6 } 
		.s10 { fill: #edb20c } 
		.s11 { fill: #f5b80b } 
	</style>
	<g id="Layer 1">
		<path id="Layer" class="s0" d="m117.7 88.7l-4 21 19.9 5.7-2.5-22.5-13.4-4.2z"/>
		<path id="Layer" class="s1" d="m0 523.4c0 0.7 0.5 1.2 1.2 1.2h522.3c0.6 0 1.2-0.5 1.2-1.2 0-0.6-0.6-1.1-1.2-1.1h-522.3c-0.7 0-1.2 0.5-1.2 1.1z"/>
		<g id="Layer">
			<path id="Layer" class="s2" d="m356 238.3h-205.6c-23.4 0-42.3 18.9-42.3 42.2v199.5c0 23.3 18.9 42.2 42.3 42.2h205.6c23.4 0 42.3-18.9 42.3-42.2v-199.5c0-23.3-18.9-42.2-42.3-42.2z"/>
			<path id="Layer" class="s3" d="m356 523.2h-205.6c-23.9 0-43.3-19.4-43.3-43.2v-199.5c0-23.8 19.4-43.2 43.3-43.2h205.6c23.9 0 43.3 19.4 43.3 43.2v199.5c0 23.8-19.4 43.2-43.3 43.2zm-205.6-283.9c-22.8 0-41.3 18.5-41.3 41.2v199.5c0 22.7 18.5 41.2 41.3 41.2h205.6c22.8 0 41.3-18.5 41.3-41.2v-199.5c0-22.7-18.5-41.2-41.3-41.2h-205.6z"/>
			<path id="Layer" class="s4" d="m370.9 324.8h-82.6c-3.5 0-6.4-2.9-6.4-6.4 0-3.5 2.9-6.3 6.4-6.3h82.6c3.5 0 6.4 2.8 6.4 6.3 0 3.5-2.9 6.4-6.4 6.4z"/>
			<path id="Layer" class="s4" d="m293.4 374.8h-80.4c-2 0-3.6-1.7-3.6-3.7 0-2 1.6-3.7 3.6-3.7h80.4c2 0 3.7 1.7 3.7 3.7 0 2-1.7 3.7-3.7 3.7z"/>
			<path id="Layer" class="s4" d="m133.6 252.3c0-0.2 0.2-0.3 0.3-0.3h45.9c0.2 0 0.3 0.1 0.3 0.3v5.3c0 0.2-0.1 0.3-0.3 0.3h-45.9c-0.1 0-0.3-0.1-0.3-0.3z"/>
			<path id="Layer" class="s1" d="m334.3 257.9c-2.6 0-4.7-2.1-4.7-4.7 0-2.7 2.1-4.8 4.7-4.8 2.7 0 4.8 2.1 4.8 4.8 0 2.6-2.1 4.7-4.8 4.7z"/>
			<path id="Layer" class="s1" d="m347.5 257.9c-2.7 0-4.8-2.1-4.8-4.7 0-2.7 2.1-4.8 4.8-4.8 2.6 0 4.7 2.1 4.7 4.8 0 2.6-2.1 4.7-4.7 4.7z"/>
			<path id="Layer" class="s1" d="m360.6 257.9c-2.7 0-4.8-2.1-4.8-4.7 0-2.7 2.1-4.8 4.8-4.8 2.6 0 4.7 2.1 4.7 4.8 0 2.6-2.1 4.7-4.7 4.7z"/>
			<path id="Layer" class="s1" d="m149.9 394.4c0 0.7 0.5 1.2 1.2 1.2h204.2c0.7 0 1.2-0.5 1.2-1.2 0-0.6-0.5-1.1-1.2-1.1h-204.2c-0.7 0-1.2 0.5-1.2 1.1z"/>
		</g>
		<g id="Layer">
			<path id="uuid-d0b76542-8f08-4363-846d-0cc3b89caf22-822" class="s0" d="m212.2 100.9c4.3-3.6 9.7-4.2 12-1.5 2.3 2.8 0.6 7.9-3.7 11.5-1.8 1.5-3.8 2.5-6 3l-18.6 15-6.9-8.9 19.1-13.8c0.9-2.1 2.3-3.9 4.1-5.3z"/>
			<path id="Layer" class="s5" d="m104.6 134.7c-0.1-0.6-0.1-6.4 4.2-10.1 5-4.2 11.9-2.5 14.3-1.9 5.6 1.4 6.1 3.8 11.4 6.3 9.9 4.6-2.5 2.3 3.4 0.8 2-0.5 31.3-2.6 38.6-7 14.1-8.8 23.8-14.1 23.8-14.1l6.3 12.7c0 0-9.1 12.7-22 22.1-13.1 9.6-19.7 14.4-29.7 16.3-0.9 0.2-22.1 3.8-39.2-9-3.9-2.9-11-8.2-11.1-16.1q0 0 0 0z"/>
			<path id="Layer" class="s0" d="m124.1 102.6c-12.1 0-22-9.8-22-22 0-12.1 9.9-22 22-22 12.2 0 22 9.9 22 22 0 12.2-9.8 22-22 22z"/>
			<g id="Layer">
				<path id="Layer" class="s0" d="m296.4 228.4l-22.7-23.2-11.7 12.2 16.9 22.2 16.7 2 0.8-13.2z"/>
				<path id="Layer" class="s6" d="m167 184.9c1.4 0.1 5.6 1 9.6-1.2 2.8-1.5 4.2-3.8 4.6-4.5 5.9-8.9 28.6-22.7 48.9-23.5 4.6-0.2 7.6 0.3 10.4 1.7 3.9 2.1 5.5 5 10.4 11.8 2.7 3.8 5.7 7.3 8.5 11 16 21.7 22.1 23.4 21.5 30.4-0.7 7.7-9 15.1-14.6 14.2-2.2-0.3-3.1-1.9-6.1-5.1-8.9-9.4-12.6-7.6-18.9-14.8-7.4-8.4-6.5-15.3-10.3-15.6-3.6-0.3-5.1 5.7-12.8 13.5-3.4 3.6-5.9 5.3-13.5 10.6-29.5 20.4-30 21.9-35.9 23.5-2.7 0.7-21.1 5.8-27.7-2.3-10.3-12.6 14-50.7 25.9-49.7q0 0 0 0z"/>
				<path id="Layer" class="s6" d="m289.5 233.6c1.6-0.7 3.6-1.6 4.2-3.6 0.4-1.4 0.2-3-0.7-4.2-1-1.3-2.5-1.5-2.5-1.7 0.1-0.4 3.7-0.3 7.6 1.1 0.7 0.3 4 1.5 8.2 4.8 3.4 2.6 3 3.2 5.1 4.7 6.5 4.7 12.6 1 16.2 5.4 1.3 1.6 1.9 4.1 1.3 6-1.1 3.9-6.7 5.2-9.8 5.9-7.3 1.7-12.9 0.3-18.7-0.6-19.8-3.4-30.9-0.3-32.4-4.9-0.3-0.9 0.2-0.8 1.7-7.2 1.5-6.3 1.4-8 2.7-8.5 1.9-0.8 3.2 2.7 8.1 3.9 4.3 1 7.9-0.6 9-1.1z"/>
			</g>
			<g id="Layer">
				<path id="Layer" class="s0" d="m256.1 304.2l-5.7-31.9-16.5 3.6 1.4 27.8 12.8 11 8-10.5z"/>
				<path id="Layer" class="s6" d="m173.5 195.6c1 0.9 4.1 3.9 8.6 4.4 3.1 0.3 5.6-0.8 6.4-1.1 9.8-4.1 36.3-2.8 53.6 7.9 3.9 2.5 6.2 4.6 7.6 7.3 2.1 3.9 1.8 7.2 2 15.6 0.2 4.7 0.7 9.3 0.9 13.9 1.1 27 5.1 31.8 0.7 37.2-4.9 6-15.9 7.4-20 3.6-1.7-1.6-1.6-3.4-2.3-7.7-2.1-12.7-6.1-13.4-7.3-22.9-1.4-11 3.3-16.3 0.3-18.6-2.9-2.3-7.5 1.8-18.2 4-4.9 1-7.9 1-17.1 1.1-35.9 0.4-37.1 1.3-43-0.7-2.5-0.9-20.7-7.1-21.6-17.4-1.4-16.3 40.1-34.1 49.4-26.6z"/>
				<path id="Layer" class="s6" d="m247.4 304.7c1.8 0.3 3.9 0.7 5.6-0.6 1.1-0.9 1.8-2.5 1.8-3.9-0.1-1.7-1.3-2.7-1.1-2.8 0.3-0.3 3.2 1.8 5.6 5.2 0.5 0.6 2.5 3.4 4.2 8.5 1.3 4.1 0.6 4.3 1.5 6.8 2.8 7.5 9.9 7.9 10.4 13.5 0.1 2.2-0.7 4.5-2.3 5.8-3.1 2.5-8.5 0.5-11.4-0.6-7.1-2.8-10.9-7-15.2-11.1-14.5-13.9-25.4-17.6-24-22.2 0.2-0.9 0.5-0.6 5.4-5 4.8-4.4 5.7-5.8 7-5.5 2.1 0.4 1.2 4 4.6 7.7 2.9 3.3 6.8 4 7.9 4.2q0 0 0 0z"/>
			</g>
			<path id="Layer" class="s6" d="m127.1 84.8c0.9-3-0.2-4.1 0.9-5.5 0 0 0.5-0.6 4.4-2.1-1.2-6.7-0.3-7.8-0.3-7.8 1-1.4 3-1.7 4.4-1.5 2.9 0.4 3.4 3 5.2 2.9 2.6-0.1 5.7-5.2 4.7-9.6-0.8-3.7-4.1-6.3-4.9-5.9-0.9 0.5-3.9-1.6-5-1.1-0.8 0.2-4.4-0.1-5.3 0.2-0.9 0.5-3.5 3.1-3.7 2.8-1.7-2.3-1.7-3.1-2.7-3.6-1.8-0.9-3.7 0.7-7 2.3-6.8 3.3-8.8 1.3-12 4.1-1.6 1.4-2.5 4.1-4.1 9.4-2.3 7.3-3.4 11-2.3 14.6 1.1 3.6 2.8 2.8 5.2 7.9 2.8 5.6 1.8 8.9 4.4 10.2 2 1 5.2 0.4 6.4-1.5 2.1-3.1-3.3-7.3-1.4-12.2 1.1-3.1 4.6-5.4 6.7-4.7 2.4 0.7 2.6 5 4.1 4.9 1.3 0 2.2-3.2 2.3-3.8q0 0 0 0z"/>
			<path id="Layer" class="s7" d="m110.5 105.9c4.5-5.1 22.8 0.2 24.5 8.2 0.7 3.3-1.9 4.7-1.1 8.5 1 5.5 7.1 5.1 11.6 10.8 6.5 8-0.1 15.8 7.1 29.2 1.5 2.9 2.8 5.3 5.5 7.6 6.2 5.3 12 3.5 15.2 8.5 2.4 3.7 1.4 8.3 1.2 9.3-0.9 4.4-3.5 5.5-5.3 9.1-2.9 6 0.4 10.4 0.6 17.5 0.2 9-4.5 21.4-14 25.5-10.7 4.5-23.6-3-29.8-10.6-3.8-4.5-4.8-8.6-6.5-13.7-7.2-22.8-11.4-20.8-16.9-38.9-6.4-20.7-7.6-44.9 0-52.6 1-1 3.8-3.4 5.5-7.6 2.4-5.7 0.4-8.5 2.4-10.8z"/>
			<g id="Layer">
				<path id="uuid-35da8825-ceb1-46f8-a8e3-884fcc945dd4-823" class="s0" d="m177 223.4c3.5 4.4 4 9.8 1.2 12-2.8 2.2-8 0.4-11.4-4-1.5-1.8-2.4-3.8-2.9-6l-14.5-19 7.5-5.7 14.9 18.5c2 0.9 3.8 2.4 5.2 4.2z"/>
				<path id="Layer" class="s8" d="m123.7 125.1c0.6-0.1 6.3-1.3 10.8 2.2 5.1 3.9 4.8 11.1 4.7 13.6-0.2 5.7-2.4 6.7-3.8 12.4-2.5 10.6 2.3 20.4 5 25.9 0.9 1.9 3.8 7.7 9.7 13.9 11.4 12.1 21.6 18.4 21.6 18.4l-10.9 9.8c0 0-17.5-5.3-29.3-16-12.1-10.9-30.8-49.6-34.7-59-0.3-0.9 4.4 12.3 13.4-7 2.1-4.4 5.9-12.5 13.5-14.2z"/>
			</g>
		</g>
		<g id="Layer">
			<path id="uuid-ba1531a6-e7ab-4297-b996-1d676f43fe3f-824" class="s9" d="m273.9 421.7c-6.9 1.1-12 5.5-11.3 9.9 0.6 4.5 6.8 7.2 13.8 6.1 2.8-0.4 5.5-1.4 7.8-3l29.4-4.9-2-11.7-29.3 4.2c-2.7-0.9-5.6-1.1-8.4-0.6q0 0 0 0z"/>
			<path id="Layer" class="s10" d="m400.9 385.4l-11.5 24.2-57.4 19.4-47.6 2.5-1.2-11.4 51.6-10.8 53-25.1 13.1 1.2z"/>
			<path id="Layer" class="s9" d="m295 477.4l-10.3 26-13.2-9.1 7.8-27.1 15.7 10.2z"/>
			<path id="Layer" class="s9" d="m252.2 467.8l-27.2 25.9 10.9 11.5 27.7-21.8-11.4-15.6z"/>
			<path id="Layer" class="s9" d="m406 383.3l-0.3-2.1-7-13.6-22.9 6.1 4.2 18.7 26-9.1z"/>
			<path id="Layer" class="s6" d="m396.3 473.8l0.7 9.1c0 0 2.9 37.9-20.6 41-23.5 3-33.8 6-47.6-17.5l-21.8-38.6-12.6 15.1-16.9-13.3c0 0 12-47.1 21.7-48.9q1.8-0.3 3.6-0.3c8-0.2 15.5 3.7 20.3 10.1l27.4 36.7 9.9-4.6 35.9 11.2q0 0 0 0z"/>
			<path id="Layer" class="s6" d="m266 502.1l5.5-10.2 15.6 10.8c0 0 3.7 13.3-1.8 15.1-5.4 1.8-20.5-0.6-20.5-0.6 0 0-27.7 6.1-28.3 0.6-0.6-5.4 12.6-6.6 12.6-6.6l16.9-9.1q0 0 0 0z"/>
			<path id="Layer" class="s6" d="m325.1 494.9l-41.9-26.4-21.4 19.2-14.5-16.9c0 0 26.6-39.2 34.4-41 7.8-1.8 20.5-3 20.5-3l38.6 35.5-15.7 32.6q0 0 0 0z"/>
			<path id="Layer" class="s6" d="m224.4 491.3l13.9 15.1-1.9 1.5c0 0-3.5 15.7-12 10.4-8.4-5.3-9-6.5-9-6.5 0 0-24.2 5.4-26.6-4.2-2.4-9.7 4.2-7.9 4.2-7.9l6.1 3.7 25.3-12.1q0 0 0 0z"/>
			<path id="Layer" class="s9" d="m383 380.3c-10.6 0-19.3-8.6-19.3-19.3 0-10.7 8.7-19.3 19.3-19.3 10.7 0 19.3 8.6 19.3 19.3 0 10.7-8.6 19.3-19.3 19.3z"/>
			<path id="Layer" class="s7" d="m378.5 388.4l27.8-8.4c0 0 10.8 25.3 9 36.8-1.8 11.5-18.3 66.1-18.3 66.1l-36.6-20.3c0 0-0.6-12-2.4-17.5-1.8-5.4-7.5-22 5.1-35.8 12.7-13.9 15.4-20.9 15.4-20.9z"/>
			<g id="Layer">
				<path id="uuid-375aaccb-22f9-42b6-a352-baabb12db8d2-825" class="s9" d="m317.4 515.1c-4.5 5.4-5.3 12.1-1.9 15 3.4 2.9 9.9 0.8 14.4-4.6 1.9-2.1 3.1-4.7 3.8-7.4l18.8-23.2-9.1-7.4-19.3 22.6c-2.6 1.1-4.9 2.8-6.7 5q0 0 0 0z"/>
				<path id="Layer" class="s11" d="m399.8 400.6l6.6 26-32.1 51.4-32.8 32.9-10.6-8.8 33-41.1 25.1-53 10.8-7.4z"/>
			</g>
			<path id="Layer" class="s6" d="m365.2 357.7c5 0 5.3 0 6.1 0 6.1-0.2 7.7-2.6 10.8-2.4 5.6 0.3-1.7 28.1-4.8 41-3 12.6 7.1 23.9 7.8 24.7 10.3 11.2 28.3 13.2 31.4 8.5 2.5-3.9-6.4-9.7-4.2-18.1 2.1-8.2 11.8-7.4 14.5-15.1 2.8-8.1-6.7-12.2-12.7-32-3.4-11.3-2.8-13.4-6-20.5-8.6-18.8-50.6-10.8-45.9 6.7 0.9 3.3-1.5 7.2 3 7.2q0 0 0 0z"/>
		</g>
		<g id="Layer">
			<path id="Layer" class="s2" d="m426.9 128.6h-202.9c-5.7 0-10.4-4.7-10.4-10.4v-107.8c0-5.7 4.7-10.4 10.4-10.4h202.9c5.7 0 10.4 4.7 10.4 10.4v107.8c0 5.7-4.7 10.4-10.4 10.4z"/>
			<path id="Layer" class="s1" d="m426.9 128.6h-202.9c-5.7 0-10.4-4.7-10.4-10.4v-107.8c0-5.7 4.7-10.4 10.4-10.4h202.9c5.7 0 10.4 4.7 10.4 10.4v107.8c0 5.7-4.7 10.4-10.4 10.4zm-202.9-126.9c-4.8 0-8.6 3.9-8.6 8.7v107.8c0 4.7 3.8 8.6 8.6 8.6h202.9c4.8 0 8.6-3.9 8.6-8.6v-107.8c0-4.8-3.8-8.7-8.6-8.7z"/>
			<path id="Layer" class="s1" d="m411.2 13c-1.4 0-2.6-1.1-2.6-2.6 0-1.4 1.2-2.6 2.6-2.6 1.5 0 2.6 1.2 2.6 2.6 0 1.5-1.1 2.6-2.6 2.6z"/>
			<path id="Layer" class="s1" d="m418.2 13c-1.5 0-2.6-1.1-2.6-2.6 0-1.4 1.1-2.6 2.6-2.6 1.4 0 2.6 1.2 2.6 2.6 0 1.5-1.2 2.6-2.6 2.6z"/>
			<path id="Layer" class="s1" d="m425.1 13c-1.4 0-2.6-1.1-2.6-2.6 0-1.4 1.2-2.6 2.6-2.6 1.5 0 2.6 1.2 2.6 2.6 0 1.5-1.1 2.6-2.6 2.6z"/>
			<path id="Layer" class="s7" d="m228.4 52.6c-0.7 0-1.3 0.5-1.3 1.3 0 0.3 0.1 0.6 0.4 0.9q0.4 0.4 0.9 0.4h195c0.7 0 1.3-0.6 1.3-1.3 0-0.4-0.2-0.7-0.4-1q-0.4-0.3-0.9-0.3z"/>
			<path id="Layer" class="s4" d="m399.1 52.1v3.5h-170.7c-0.5 0-0.9-0.2-1.2-0.5-0.4-0.3-0.5-0.8-0.5-1.2 0-1 0.7-1.8 1.7-1.8z"/>
			<path id="Layer" class="s7" d="m421.2 45.6h-17.4c-1.9 0-3.4-1.6-3.4-3.5 0-1.9 1.5-3.4 3.4-3.4h17.4c1.9 0 3.5 1.5 3.5 3.4 0 1.9-1.6 3.5-3.5 3.5z"/>
			<path id="Layer" class="s7" d="m307.4 27.4h-77.7c-1.9 0-3.5-1.6-3.5-3.5 0-1.9 1.6-3.5 3.5-3.5h77.7c1.9 0 3.5 1.6 3.5 3.5 0 1.9-1.6 3.5-3.5 3.5z"/>
			<path id="Layer" class="s7" d="m228.4 91.6c-0.7 0-1.3 0.6-1.3 1.3 0 0.4 0.1 0.7 0.4 1q0.4 0.3 0.9 0.3h195c0.7 0 1.3-0.5 1.3-1.3 0-0.3-0.2-0.6-0.4-0.9q-0.4-0.4-0.9-0.4z"/>
			<path id="Layer" class="s4" d="m332.2 91.2v3.5h-103.8c-0.5 0-0.9-0.2-1.2-0.5-0.4-0.3-0.5-0.8-0.5-1.3 0-0.9 0.7-1.7 1.7-1.7 0 0 103.8 0 103.8 0z"/>
			<path id="Layer" class="s7" d="m421.2 84.7h-17.4c-1.9 0-3.4-1.6-3.4-3.5 0-1.9 1.5-3.5 3.4-3.5h17.4c1.9 0 3.5 1.6 3.5 3.5 0 1.9-1.6 3.5-3.5 3.5z"/>
		</g>
	</g>
</svg>